<?xml version="1.0" encoding="utf-8"?>
<svg version="1.1" id="Layer_1"
xmlns="http://www.w3.org/2000/svg"
xmlns:xlink="http://www.w3.org/1999/xlink"
width="80px" height="80px"
xml:space="preserve">
<filter id="filter7" x="-0.549524" y="-0.549524" width="2.32496" height="2.37726" >
<feComponentTransfer in="SourceGraphic">
	<feFuncR type="linear" slope="0"/>
	<feFuncG type="linear" slope="0"/>
	<feFuncB type="linear" slope="0"/>
</feComponentTransfer>
<feGaussianBlur stdDeviation="2 2" />
<feOffset result="1" dx="-3.53558" dy="-3.53549"/>
<feComponentTransfer in="SourceGraphic">
	<feFuncR type="linear" slope="0"/>
	<feFuncG type="linear" slope="0"/>
	<feFuncB type="linear" slope="0"/>
</feComponentTransfer>
<feGaussianBlur stdDeviation="2 2" />
<feOffset result="2" dx="3.53558" dy="3.53549"/>
<feComposite  in="1" in2="2" operator="arithmetic" k2="1" k3="-1"/>
<feComponentTransfer result="3">
	<feFuncR type="linear" Ue="0" intercept="1"/>
	<feFuncG type="linear" Ue="0" intercept="0.988235"/>
	<feFuncB type="linear" Ue="0" intercept="0.901961"/>
	<feFuncA type="linear" xh="0" slope="1"/>
</feComponentTransfer>
<feComposite  in="2" in2="1" operator="arithmetic" k2="1" k3="-1"/>
<feComponentTransfer result="4">
	<feFuncR type="linear" Ue="0" intercept="0.6"/>
	<feFuncG type="linear" Ue="0" intercept="0.576471"/>
	<feFuncB type="linear" Ue="0" intercept="0.360784"/>
	<feFuncA type="linear" xh="0" slope="1"/>
</feComponentTransfer>
<feComposite result="5"  in="3" in2="4" operator="arithmetic" k2="1" k3="1"/>
<feComposite result="6"  in="5" in2="SourceGraphic" operator="atop"/>
</filter>
<g style="filter:url(#filter7);">
<g id="PathID_1" transform="matrix(0.509638, 0, 0, 0.509638, 2, 42.25)" opacity="1">
<path style="fill:#FFF79A;fill-opacity:1" d="M136.1 30.2Q143.2 30.3 146.75 30.05L147.2 28.85L137 27.85L136.1 30.2M136.4 27.8L125.3 27.1L124.05 30L135.5 30.2L136.4 27.8M134.7 35.25Q138.35 37 141.25 39L142.8 40.1L142.85 39.95Q143.05 39.5 143.45 39.45L144.4 36.65L146.6 30.6L139.4 30.8L134.7 35.25M138.6 30.85L135.9 30.8L134.55 34.6L138.6 30.85M135.3 30.8L123.8 30.6L123.6 31.1L126 31.8Q130.25 33.2 133.85 34.85L135.3 30.8M124.7 27.1L112.6 26.5L111.7 28.15L119.05 29.8L123.45 29.95L124.7 27.1M123.05 30.9L123.2 30.55L121.7 30.5L123.05 30.9M147.4 30Q149.7 29.8 149.45 29.5Q149.3 29.25 147.75 28.95L147.4 30M147.55 41.45Q147.55 41.15 147.25 40.95Q147.6 41.7 147.25 41.95L146.5 42.15L145.75 41.95L145.4 41.45L145.7 40.95L146.45 40.75L147.25 40.95Q147.55 41.15 147.55 41.45M147.25 40.95L146.45 40.75L145.7 40.95L145.4 41.45L145.75 41.95L146.5 42.15L147.25 41.95Q147.6 41.7 147.55 41.45M144.4 48.5Q141.5 51 134.35 55.05Q124.75 60.3 122.95 61.4Q119.95 63.35 115.8 67.1Q112.85 69.75 110.6 70.35Q108.3 70.95 91.25 68.5L54.8 62.5Q33.85 58.75 19.2 55.65Q3.05 52.2 2.35 51.1Q0.35 47.95 0.05 43.7Q-0.1 41.1 0.4 38.8Q2.3 38.7 8.05 38.75L26.6 39.4Q57.45 40.9 93.45 45.45Q113.2 47.9 131.4 48.4Q139.35 48.65 144.4 48.5M83.15 46.95Q82.2 46.2 80.7 45.95L78.1 46Q76.95 46.35 76.8 47.1Q76.65 47.85 77.6 48.55Q78.55 49.3 80.05 49.55L82.65 49.5Q83.8 49.15 83.95 48.4Q84.05 47.65 83.15 46.95M85.4 25.35L83.3 25.5L80.95 25.65Q86.95 25.5 95.8 26.85Q105.85 28.35 114.9 31.1L115.35 31L115.15 30.6Q107.8 28.35 98.6 26.8Q90.2 25.35 85.4 25.35M112.65 31.3Q104.35 28.75 94.6 27.2Q85.85 25.8 80.45 25.8L76.05 26.2L91.8 27.35Q102.5 28.85 112.35 31.8Q112.65 31.9 112.75 31.65L112.65 31.3M108.35 33.1Q108.55 32.85 108.35 32.7Q99.05 29.85 86.3 28.2L68.95 26.9L63.2 27.3L82.85 28.3Q97.25 29.9 107.85 33.25L108.35 33.1M105.3 33.45Q95.7 30.55 81.65 28.85L63 27.6L59.5 27.75L55.7 27.95L77.6 29.25Q94.25 31.05 104.55 34L105.4 33.9Q105.65 33.6 105.3 33.45M111.1 32.4L111.05 32Q102.2 29.3 90.65 27.7L74.65 26.35L69.75 26.7L87.65 27.85Q100.3 29.45 110.65 32.55L111.1 32.4M111.95 26.5L104.8 26.2L98.25 26L111.1 28.05L111.95 26.5M46.05 12.8L43.1 11.95L38.1 11.5L33.5 11.5L26.6 11.95Q23.55 12.35 23.25 12.95Q22.55 14.4 26 19.15L27.55 21.25L27.75 21.05Q32.65 17.05 49.75 15.7L49.15 15.1L46.05 12.8M59.2 30.45Q58.65 30.85 58.65 31.45Q58.65 32.05 59.2 32.45Q59.7 32.8 60.4 32.85L60.75 32.15L61.7 30.25L60.6 30Q59.8 30 59.2 30.45M59.4 34.8L51.5 34.05L45.9 33.5L45.45 34.8L53.4 35.4L58.95 35.7L59.4 34.8M59.6 35.75L78 36.2L78.05 36.05L60.05 34.85L59.6 35.75M46.95 29.95L46.55 31.25L47.05 30.35L46.95 29.95M46.45 29.3Q45.9 28.9 45.1 28.9Q44.3 28.9 43.75 29.3Q43.15 29.75 43.15 30.35Q43.15 30.95 43.75 31.35Q44.3 31.75 45.1 31.75L45.8 31.65L46.55 29.35L46.45 29.3M45.25 33.4L33.55 32.1L33.05 33.6L44.85 34.75L45.25 33.4M61.05 32.8L61.95 32.45Q62.5 32.05 62.5 31.45Q62.5 30.95 62.15 30.6L61.05 32.8M10.35 30.75Q10.35 31 11.25 31.15L13.3 31.4L13.5 30.95L14.35 29.7L13.8 29.65Q12.35 29.45 10.9 30.2Q10.3 30.5 10.35 30.75M14.95 30.15Q14.3 30.75 14 31.45L21.4 32.35L21.9 30.7L15.25 29.85L14.95 30.15M32.95 32L22.55 30.75L22.05 32.4L32.45 33.55L32.95 32M24.45 9.6L24.45 8.7L22.85 8.45Q22.35 8.3 22.35 7.85Q22.35 7.4 22.85 7.25L24.55 7L24.55 6.25Q24.55 5.75 24.85 5.75Q25.15 5.75 25.15 6.25L25.2 7L26.85 7.25Q27.35 7.35 27.3 7.85Q27.3 8.3 26.85 8.45L25.3 8.65L25.35 9.55L29 9.5L24.4 0.65Q24.25 0.25 24.55 0.2Q24.8 0.2 25.05 0.5L27.6 5.15L29.95 9.5L31.1 9.5L31.05 9.3L31.15 9.05L31.4 8.95L31.4 8.55L31.2 8.45L31.1 8.25L31.2 8.05L31.4 8L31.95 8L32.15 8.05L32.25 8.25L32.15 8.45L31.95 8.55L31.9 8.55L31.9 8.95L32.15 9.05L32.3 9.3L32.25 9.5L33.35 9.5L39.25 9.65L34.25 0.6Q34.05 0.2 34.3 0.05L34.75 0.25L37.6 5.1L40.2 9.7L44.05 10.05L47.05 10.45Q50.75 10.9 56.8 15.3Q60.75 15.15 64.8 15.15L71.1 15.4L71.9 15.95L72.3 16.35L76.05 19.4L81.5 24.35L93.3 25.4L105.4 25.65L121.85 26.35L141.05 27.6L148.7 28.65Q149.85 28.9 150 29.3L149.85 29.9Q149.5 30.3 147.2 30.5L144 39.45L145.55 39.6Q147.45 39.85 147.75 40.35L148.05 41.3Q148.15 41.95 147.75 42.25Q147.2 42.7 146.55 42.75L145.9 42.75L148.2 44.95L148.45 45.55L148.25 46.2Q145.95 46.7 133.45 46.2L96.65 43.65Q62.45 40.45 30.45 39.05Q6.35 37.95 1.05 38.3L0.75 38.35Q0.9 36 2.75 33.7Q4.75 31.15 6.95 31.2Q8.7 31.25 10.7 29.95Q13.05 28.4 14 28.15L20 26.55L19.9 26.1L19.35 24.6L19 23.75L17.55 20.15L17.4 19.55L16.95 12.3L17 12.2L17.05 12.05L17.05 12L17.15 11.8L18.4 11.2L19 10.75L20.65 10.15L20.85 10L21.3 9.95L21.35 9.95L24.45 9.6" />
</g>
<g id="PathID_2" transform="matrix(0.509638, 0, 0, 0.509638, 2, 42.25)" opacity="1">
<path style="fill:none;stroke-width:1.5;stroke-linecap:butt;stroke-linejoin:miter;stroke-miterlimit:4;stroke:#CAD4D4;stroke-opacity:1" d="M147.45 41.4Q147.55 41.65 147.15 41.85L146.5 42.05L145.7 41.85L145.4 41.4L145.7 40.9L146.4 40.7L147.15 40.9Q147.45 41.1 147.45 41.4z" />
</g>
</g>
<filter id="filter10" x="-0.521857" y="-0.521857" width="2.27545" height="2.25686" >
<feComponentTransfer in="SourceGraphic">
	<feFuncR type="linear" slope="0"/>
	<feFuncG type="linear" slope="0"/>
	<feFuncB type="linear" slope="0"/>
</feComponentTransfer>
<feGaussianBlur stdDeviation="0.6 0.6" />
<feOffset dx="2.12135" dy="2.12129"/>
<feComponentTransfer result="8">
	<feFuncR type="linear" Ue="0" intercept="0.701961"/>
	<feFuncG type="linear" Ue="0" intercept="0.627451"/>
	<feFuncB type="linear" Ue="0" intercept="0.403922"/>
	<feFuncA type="linear" xh="0" slope="2"/>
</feComponentTransfer>
<feComposite result="9"  in="SourceGraphic" in2="8" operator="over"/>
</filter>
<g style="filter:url(#filter10);">
<g id="PathID_3" transform="matrix(0.958333, 0, 0, 0.958333, 2.85, 38.9)" opacity="1">
<path style="fill:#FFD347;fill-opacity:1" d="M11.95 -16.7L11.95 -7.8Q11.95 -5.25 12.2 -4Q12.5 -2.8 13.3 -2Q13.95 -1.3 14.85 -0.95Q15.75 -0.6 17.2 -0.55L17.2 0L1.25 0L1.25 -0.55Q2.7 -0.6 3.55 -0.95Q4.45 -1.3 5.15 -2Q5.95 -2.8 6.2 -4Q6.5 -5.25 6.5 -7.8L6.5 -26.3Q6.5 -28.85 6.2 -30.05Q5.95 -31.3 5.15 -32.1Q4.45 -32.85 3.55 -33.15Q2.65 -33.5 1.25 -33.6L1.25 -34.15L13.3 -34.15L17.25 -34.1Q21.15 -33.95 23.35 -33.05Q25.8 -32.05 27.15 -30.05Q28.55 -28.05 28.55 -25.45Q28.55 -21.55 25.55 -19.2Q24.65 -18.5 23.55 -18.05Q22.5 -17.6 20.65 -17.2Q22.15 -16.55 22.85 -15.85Q23.45 -15.35 23.9 -14.55Q24.4 -13.75 25.35 -11.75Q27.55 -7.2 28.7 -5.05Q29.85 -2.95 30.65 -2Q31.25 -1.25 31.85 -0.95Q32.45 -0.65 33.45 -0.55L33.45 0L25.2 0L24.35 -1.75L22.6 -5.7Q21.05 -9.3 19.45 -12.05Q17.85 -14.75 16.5 -15.75Q15.85 -16.25 15.05 -16.45Q14.3 -16.7 13.15 -16.7L11.95 -16.7M11.95 -17.25L12.9 -17.25Q16 -17.25 17.3 -17.6Q18.65 -17.95 19.85 -19.05Q22.5 -21.55 22.5 -25.25Q22.5 -27.2 21.7 -28.95Q20.95 -30.7 19.6 -31.8Q18.55 -32.65 17.1 -33Q15.65 -33.35 12.95 -33.35L11.95 -33.35L11.95 -17.25" />
</g>
<g id="PathID_4" transform="matrix(0.958333, 0, 0, 0.958333, 2.85, 38.9)" opacity="1">
</g>
</g>
<filter id="filter13" x="-0.521857" y="-0.521857" width="2.28611" height="2.25849" >
<feComponentTransfer in="SourceGraphic">
	<feFuncR type="linear" slope="0"/>
	<feFuncG type="linear" slope="0"/>
	<feFuncB type="linear" slope="0"/>
</feComponentTransfer>
<feGaussianBlur stdDeviation="0.6 0.6" />
<feOffset dx="2.12135" dy="2.12129"/>
<feComponentTransfer result="11">
	<feFuncR type="linear" Ue="0" intercept="0.701961"/>
	<feFuncG type="linear" Ue="0" intercept="0.627451"/>
	<feFuncB type="linear" Ue="0" intercept="0.403922"/>
	<feFuncA type="linear" xh="0" slope="2"/>
</feComponentTransfer>
<feComposite result="12"  in="SourceGraphic" in2="11" operator="over"/>
</filter>
<g style="filter:url(#filter13);">
<g id="PathID_5" transform="matrix(0.923874, 0, 0, 0.923874, 41.45, 62.35)" opacity="1">
<path style="fill:#FFD347;fill-opacity:1" d="M2.4 -0.1L2.45 -10.45L3.05 -10.4Q4.1 -6.45 5.55 -4.15Q8.25 0 12.4 0Q15.3 0 17.2 -1.9Q19.1 -3.85 19.1 -6.8Q19.1 -8.05 18.65 -9.35Q18.25 -10.7 17.55 -11.65Q16.8 -12.65 15.5 -13.55Q14.2 -14.45 11.5 -15.8Q9.1 -17 7.8 -17.8Q6.55 -18.65 5.8 -19.5Q3.65 -21.85 3.65 -25.25Q3.65 -27.3 4.45 -29.2Q5.3 -31.15 6.8 -32.55Q9.45 -35 13.05 -35Q14.25 -35 15.25 -34.75Q16.25 -34.5 17.9 -33.8L19.6 -33.15Q20.05 -33 20.4 -33Q21.3 -33 21.6 -34.3L22.2 -34.3L22.4 -24.35L21.8 -24.35Q21.1 -26.7 20.6 -27.95Q20.15 -29.25 19.45 -30.35Q18.25 -32.3 16.75 -33.25Q15.3 -34.2 13.4 -34.2Q10.6 -34.2 8.95 -32.25Q8.3 -31.5 7.9 -30.45Q7.55 -29.4 7.55 -28.35Q7.55 -24.15 12.9 -21.6L16.4 -19.9Q20.5 -17.95 22.3 -15.65Q24.35 -13.05 24.35 -9.6Q24.35 -7.3 23.4 -5.2Q22.1 -2.3 19.5 -0.7Q16.9 0.85 13.35 0.85Q10.15 0.85 7.15 -0.4L5.3 -1.2Q5 -1.3 4.65 -1.3Q3.45 -1.3 3 -0.1L2.4 -0.1" />
</g>
<g id="PathID_6" transform="matrix(0.923874, 0, 0, 0.923874, 41.45, 62.35)" opacity="1">
</g>
</g>
<filter id="filter16" x="-0.557429" y="-0.557429" width="2.29486" height="2.29486" >
<feFlood result="black"></feFlood>
<feComponentTransfer in="SourceGraphic">
	<feFuncR type="linear" slope="0"/>
	<feFuncG type="linear" slope="0"/>
	<feFuncB type="linear" slope="0"/>
</feComponentTransfer>
<feGaussianBlur stdDeviation="2.4 2.4" />
<feOffset dx="0" dy="0"/>
<feComposite  in2="black" operator="arithmetic" k2="-1" k3="1"/>
<feComponentTransfer result="14">
	<feFuncR type="linear" Ue="0" intercept="0.701961"/>
	<feFuncG type="linear" Ue="0" intercept="0.67451"/>
	<feFuncB type="linear" Ue="0" intercept="0.403922"/>
	<feFuncA type="linear" xh="0" slope="1.5"/>
</feComponentTransfer>
<feComposite result="15"  in="14" in2="SourceGraphic" operator="atop"/>
</filter>
<g style="filter:url(#filter16);">
<g id="PathID_7" transform="matrix(0.13307, 0, 0, -0.13307, 44.65, 17.55)" opacity="1">
<path style="fill:#FFF047;fill-opacity:1" d="M149.45 10.05L134.45 17.8L123.35 17.8L123.65 16.1Q123.55 14.3 121.65 12.85Q118.95 10.75 112.9 10.5L96.65 10.5Q96.3 12.2 94.95 13.2Q93.65 14.2 92.05 14.2Q90.4 14.2 89.05 13.2Q87.7 12.2 87.35 10.5L84.45 10.5Q84 14.2 81.4 16.55Q78.7 19.05 75 19.05Q71.3 19.05 68.65 16.55Q66.05 14.2 65.5 10.5L62.7 10.5Q62.35 12.2 61 13.2Q59.65 14.2 58 14.2Q56.3 14.2 55.05 13.2Q53.7 12.2 53.4 10.5L37.15 10.5Q31.05 10.75 28.25 12.85Q26.35 14.3 26.35 16.1Q26.35 17.15 26.7 17.8L15.6 17.8L0.6 10.05L0 9.4L0.6 8.85L15.6 1.2L26.7 1.2L26.35 2.8Q26.35 4.7 28.25 6.15Q30.95 8.15 37.15 8.4L53.4 8.4Q53.7 6.7 55.05 5.7Q56.3 4.7 58 4.7Q59.65 4.7 61 5.7Q62.35 6.7 62.7 8.4L65.5 8.4Q66.05 4.8 68.65 2.45Q71.3 0 75 0Q78.7 0 81.4 2.45Q84 4.8 84.45 8.4L87.35 8.4Q87.7 6.7 89.05 5.7Q90.4 4.7 92.05 4.7Q93.65 4.7 94.95 5.7Q96.3 6.7 96.65 8.4L112.9 8.4Q119.1 8.15 121.65 6.15Q123.55 4.7 123.65 2.8L123.35 1.2L134.45 1.2L149.45 8.85L150 9.4L149.45 10.05" />
</g>
<g id="PathID_8" transform="matrix(0.13307, 0, 0, -0.13307, 44.65, 17.55)" opacity="1">
</g>
</g>
<filter id="filter19" x="-0.557429" y="-0.557429" width="2.29486" height="2.29486" >
<feFlood result="black"></feFlood>
<feComponentTransfer in="SourceGraphic">
	<feFuncR type="linear" slope="0"/>
	<feFuncG type="linear" slope="0"/>
	<feFuncB type="linear" slope="0"/>
</feComponentTransfer>
<feGaussianBlur stdDeviation="2.4 2.4" />
<feOffset dx="0" dy="0"/>
<feComposite  in2="black" operator="arithmetic" k2="-1" k3="1"/>
<feComponentTransfer result="17">
	<feFuncR type="linear" Ue="0" intercept="0.701961"/>
	<feFuncG type="linear" Ue="0" intercept="0.67451"/>
	<feFuncB type="linear" Ue="0" intercept="0.403922"/>
	<feFuncA type="linear" xh="0" slope="1.5"/>
</feComponentTransfer>
<feComposite result="18"  in="17" in2="SourceGraphic" operator="atop"/>
</filter>
<g style="filter:url(#filter19);">
<g id="PathID_9" transform="matrix(-6.94071e-005, 0.13307, 0.13307, 6.94188e-005, 53.25, 6.25)" opacity="1">
<path style="fill:#FFF047;fill-opacity:1" d="M149.45 10.05L134.45 17.8L123.35 17.8L123.65 16.1Q123.55 14.3 121.65 12.85Q118.95 10.75 112.9 10.5L96.65 10.5Q96.3 12.2 94.95 13.2Q93.65 14.2 92.05 14.2Q90.4 14.2 89.05 13.2Q87.7 12.2 87.35 10.5L84.45 10.5Q84 14.2 81.4 16.55Q78.7 19.05 75 19.05Q71.3 19.05 68.65 16.55Q66.05 14.2 65.5 10.5L62.7 10.5Q62.35 12.2 61 13.2Q59.65 14.2 58 14.2Q56.3 14.2 55.05 13.2Q53.7 12.2 53.4 10.5L37.15 10.5Q31.05 10.75 28.25 12.85Q26.35 14.3 26.35 16.1Q26.35 17.15 26.7 17.8L15.6 17.8L0.6 10.05L0 9.4L0.6 8.85L15.6 1.2L26.7 1.2L26.35 2.8Q26.35 4.7 28.25 6.15Q30.95 8.15 37.15 8.4L53.4 8.4Q53.7 6.7 55.05 5.7Q56.3 4.7 58 4.7Q59.65 4.7 61 5.7Q62.35 6.7 62.7 8.4L65.5 8.4Q66.05 4.8 68.65 2.45Q71.3 0 75 0Q78.7 0 81.4 2.45Q84 4.8 84.45 8.4L87.35 8.4Q87.7 6.7 89.05 5.7Q90.4 4.7 92.05 4.7Q93.65 4.7 94.95 5.7Q96.3 6.7 96.65 8.4L112.9 8.4Q119.1 8.15 121.65 6.15Q123.55 4.7 123.65 2.8L123.35 1.2L134.45 1.2L149.45 8.85L150 9.4L149.45 10.05" />
</g>
<g id="PathID_10" transform="matrix(-6.94071e-005, 0.13307, 0.13307, 6.94188e-005, 53.25, 6.25)" opacity="1">
</g>
</g>
</svg>
